<svg width="149" height="29" viewBox="0 0 149 29" xmlns="http://www.w3.org/2000/svg">
    <g fill="none" fill-rule="evenodd">
        <rect fill="#2DE0AF" fill-rule="nonzero" width="149" height="29" rx="4"/>
        <g fill-rule="nonzero" fill="#FFF">
            <path d="M13.054 7.477h-.987a2.613 2.613 0 0 0-2.613 2.613v7.721c.94.575 1.98.843 2.812.966a1.731 1.731 0 0 1-.182-.774v-6.15-.005c0-.102.003-2.4.97-4.37zM24.349 11.077v-.987a2.613 2.613 0 0 0-2.613-2.613h-7.721c-.575.94-.843 1.98-.966 2.812.234-.116.497-.182.774-.182H19.98c.102 0 2.399.004 4.37.97zM20.69 22.349h.987a2.613 2.613 0 0 0 2.613-2.613v-7.721c-.94-.575-1.98-.843-2.812-.966.117.234.182.497.182.774V17.98c0 .102-.003 2.399-.97 4.37zM9.406 18.69v.987a2.613 2.613 0 0 0 2.613 2.613h7.721c.575-.94.843-1.98.966-2.812a1.731 1.731 0 0 1-.774.182h-6.155c-.102 0-2.4-.003-4.37-.97z"/>
            <path d="M18.044 4h-6.803A5.243 5.243 0 0 0 6 9.223h.008s.218 5.006 2.174 7.4c.136.165.28.319.43.46V10.1a3.484 3.484 0 0 1 3.487-3.487h1.472c.25-.352.542-.677.883-.956.895-.732 2.247-1.27 3.59-1.656z"/>
            <path d="M27.765 16.044V9.241A5.243 5.243 0 0 0 22.54 4v.008s-5.005.217-7.399 2.174c-.166.136-.319.28-.46.43h6.984a3.484 3.484 0 0 1 3.487 3.487v1.472c.352.25.677.542.956.883.732.895 1.27 2.247 1.656 3.59z"/>
            <path d="M15.723 25.765h6.803a5.243 5.243 0 0 0 5.24-5.224h-.007s-.218-5.005-2.174-7.399a4.847 4.847 0 0 0-.43-.46v6.984a3.484 3.484 0 0 1-3.487 3.487h-1.472c-.25.352-.542.677-.883.956-.895.732-2.248 1.27-3.59 1.656z"/>
            <path d="M6.024 13.723v6.803a5.243 5.243 0 0 0 5.223 5.24v-.007s5.005-.218 7.4-2.174c.165-.136.318-.28.46-.43h-6.984a3.484 3.484 0 0 1-3.488-3.487v-1.472a4.855 4.855 0 0 1-.956-.883c-.731-.895-1.269-2.248-1.655-3.59z"/>
        </g>
        <path d="M35.369 10.498h2.275c1.3 0 2.314.351 3.042 1.053.728.702 1.092 1.755 1.092 3.159 0 .702-.093 1.322-.28 1.859a3.566 3.566 0 0 1-.805 1.346c-.352.36-.776.63-1.274.812-.499.182-1.064.273-1.697.273h-2.353v-8.502zm2.171 7.28c.867 0 1.532-.25 1.995-.747.464-.499.696-1.272.696-2.321 0-1.04-.234-1.798-.702-2.275-.468-.477-1.131-.715-1.989-.715h-.663v6.058h.663zm5.808-1.963c0-.52.082-.988.247-1.404a3.22 3.22 0 0 1 .657-1.053c.273-.286.587-.507.942-.663.355-.156.72-.234 1.092-.234.433 0 .815.074 1.144.221.33.147.604.355.825.624.222.269.388.59.501.962.113.373.169.78.169 1.222 0 .295-.022.529-.065.702h-4.056c.07.58.27 1.027.604 1.339.334.312.761.468 1.281.468.277 0 .535-.041.773-.123.239-.083.475-.198.709-.345l.507.936a4.59 4.59 0 0 1-1.014.494c-.373.13-.763.195-1.17.195-.442 0-.854-.076-1.235-.227a2.933 2.933 0 0 1-1.001-.657 2.995 2.995 0 0 1-.67-1.046 3.865 3.865 0 0 1-.24-1.411zm4.277-.572c0-.511-.106-.91-.319-1.196-.212-.286-.539-.429-.981-.429-.381 0-.715.136-1.001.41-.286.273-.464.678-.533 1.215h2.834zm4.625 4.277v2.002h-1.495v-8.905h1.235l.104.676h.052c.269-.225.568-.42.897-.585.33-.165.672-.247 1.027-.247.399 0 .752.076 1.06.227.307.152.57.371.786.657.217.286.381.628.494 1.027.113.399.169.845.169 1.339 0 .546-.076 1.033-.227 1.463a3.318 3.318 0 0 1-.605 1.079 2.64 2.64 0 0 1-.871.669c-.33.156-.672.234-1.027.234-.277 0-.555-.06-.832-.182a3.183 3.183 0 0 1-.806-.52l.039 1.066zm0-2.132c.234.2.46.338.676.416.217.078.42.117.611.117.425 0 .78-.184 1.066-.552.286-.369.429-.917.429-1.645 0-.641-.108-1.14-.325-1.495-.217-.355-.568-.533-1.053-.533-.45 0-.919.238-1.404.715v2.977zm6.237-7.566h1.495v7.618c0 .182.035.31.104.383.07.074.143.111.221.111h.097c.03 0 .076-.009.137-.026l.195 1.118c-.2.087-.464.13-.793.13-.537 0-.914-.16-1.131-.481-.217-.32-.325-.758-.325-1.313v-7.54zm3.507 5.993c0-.529.082-1.001.247-1.417a3.11 3.11 0 0 1 .67-1.053 2.929 2.929 0 0 1 2.112-.884c.399 0 .782.076 1.15.227.369.152.692.371.969.657.277.286.5.637.67 1.053.169.416.253.888.253 1.417s-.084 1.001-.254 1.417a3.247 3.247 0 0 1-.669 1.053c-.277.286-.6.503-.968.65a3.07 3.07 0 0 1-1.151.221 3.02 3.02 0 0 1-1.144-.221 2.846 2.846 0 0 1-.968-.65 3.11 3.11 0 0 1-.67-1.053 3.825 3.825 0 0 1-.247-1.417zm1.534 0c0 .641.132 1.155.397 1.54.264.386.63.579 1.098.579.468 0 .836-.193 1.105-.579.269-.385.403-.899.403-1.54 0-.65-.134-1.168-.403-1.553a1.276 1.276 0 0 0-1.105-.579 1.26 1.26 0 0 0-1.098.579c-.265.385-.397.903-.397 1.553zm6.211 4.511c.06.017.132.037.215.058a.943.943 0 0 0 .24.033c.338 0 .609-.102.813-.306.203-.203.357-.465.461-.786l.117-.403-2.509-6.305h1.521l1.105 3.133c.095.277.188.57.28.878.09.307.184.613.279.916h.052a345.378 345.378 0 0 1 .481-1.794l.962-3.133h1.443l-2.314 6.669c-.13.364-.273.689-.429.975a3.19 3.19 0 0 1-.54.735c-.203.203-.437.36-.701.468-.265.108-.57.162-.917.162a2.8 2.8 0 0 1-.455-.033 2.188 2.188 0 0 1-.377-.097l.273-1.17zM79.99 13.8h-.91v-1.118l.988-.065.182-1.742h1.248v1.742h1.625V13.8h-1.625v3.042c0 .745.299 1.118.897 1.118.113 0 .227-.013.345-.039.117-.026.223-.06.318-.104l.26 1.105c-.173.06-.37.115-.591.162a3.356 3.356 0 0 1-.709.072c-.373 0-.687-.056-.942-.169a1.598 1.598 0 0 1-.624-.474 1.964 1.964 0 0 1-.352-.729 3.726 3.726 0 0 1-.11-.942V13.8zm4.326 2.015c0-.529.082-1.001.247-1.417a3.11 3.11 0 0 1 .67-1.053 2.929 2.929 0 0 1 2.112-.884c.399 0 .782.076 1.15.227.369.152.692.371.969.657.277.286.5.637.67 1.053.169.416.253.888.253 1.417s-.084 1.001-.254 1.417a3.247 3.247 0 0 1-.669 1.053c-.277.286-.6.503-.968.65a3.07 3.07 0 0 1-1.151.221 3.02 3.02 0 0 1-1.144-.221 2.846 2.846 0 0 1-.968-.65 3.11 3.11 0 0 1-.67-1.053 3.825 3.825 0 0 1-.247-1.417zm1.534 0c0 .641.132 1.155.397 1.54.264.386.63.579 1.098.579.468 0 .836-.193 1.105-.579.269-.385.403-.899.403-1.54 0-.65-.134-1.168-.403-1.553a1.276 1.276 0 0 0-1.105-.579 1.26 1.26 0 0 0-1.099.579c-.264.385-.396.903-.396 1.553zm9.614-5.317h2.86c.468 0 .9.043 1.294.13.394.087.734.234 1.02.442.286.208.511.479.676.813.165.333.247.747.247 1.241 0 .468-.082.875-.247 1.222a2.395 2.395 0 0 1-.682.864c-.29.23-.633.4-1.028.507a4.82 4.82 0 0 1-1.28.163h-1.352V19h-1.508v-8.502zm2.743 4.173c1.248 0 1.872-.516 1.872-1.547 0-.537-.156-.908-.468-1.112-.312-.203-.78-.305-1.404-.305h-1.235v2.964h1.235zm5.223-2.054h1.235l.104 1.131h.052c.225-.416.498-.734.819-.955.32-.222.65-.332.988-.332.303 0 .546.043.728.13l-.26 1.3a2.003 2.003 0 0 0-.663-.104c-.251 0-.516.097-.793.292-.277.196-.516.536-.715 1.021V19h-1.495v-6.383zm6.003-1.118a.953.953 0 0 1-.663-.234.783.783 0 0 1-.26-.611c0-.251.087-.457.26-.617a.938.938 0 0 1 .663-.241c.269 0 .49.08.663.24.173.16.26.367.26.618a.783.783 0 0 1-.26.611.953.953 0 0 1-.663.234zm-.754 1.118h1.495V19h-1.495v-6.383zm3.871 4.693c.286.225.57.4.852.527.281.125.587.188.916.188.347 0 .602-.071.767-.214a.698.698 0 0 0 .247-.553.543.543 0 0 0-.117-.345 1.124 1.124 0 0 0-.312-.266 3 3 0 0 0-.442-.214 23.65 23.65 0 0 1-.494-.202 7.817 7.817 0 0 1-.637-.273 2.56 2.56 0 0 1-.579-.377 1.902 1.902 0 0 1-.416-.513 1.41 1.41 0 0 1-.162-.696c0-.563.208-1.023.624-1.378.416-.355.984-.533 1.703-.533.442 0 .84.078 1.196.234.355.156.663.334.923.533l-.689.91a3.565 3.565 0 0 0-.683-.396c-.23-.1-.47-.15-.721-.15-.32 0-.557.067-.709.201a.642.642 0 0 0-.227.501c0 .13.037.24.11.332.074.09.172.17.293.24.121.07.262.134.422.195.16.06.328.121.501.182.217.078.433.167.65.266.217.1.414.224.591.371.178.147.321.327.43.54.108.212.162.465.162.76a1.787 1.787 0 0 1-.637 1.398 2.311 2.311 0 0 1-.78.422 3.365 3.365 0 0 1-1.066.156c-.442 0-.877-.084-1.306-.253-.43-.17-.8-.38-1.112-.631l.702-.962zm5.938-4.693h1.235l.104.871h.052c.269-.286.561-.529.877-.728a1.97 1.97 0 0 1 1.073-.299c.468 0 .843.1 1.125.299.281.2.496.481.643.845.303-.33.62-.602.949-.819.33-.217.698-.325 1.105-.325.676 0 1.174.219 1.495.656.32.438.481 1.064.481 1.879V19h-1.508v-3.809c0-.529-.08-.901-.24-1.118-.16-.217-.406-.325-.735-.325-.399 0-.845.264-1.339.793V19h-1.495v-3.809c0-.529-.08-.901-.24-1.118-.16-.217-.41-.325-.748-.325-.399 0-.845.264-1.339.793V19h-1.495v-6.383zm12.113-1.118a.953.953 0 0 1-.663-.234.783.783 0 0 1-.26-.611c0-.251.087-.457.26-.617a.938.938 0 0 1 .663-.241c.269 0 .49.08.663.24.173.16.26.367.26.618a.783.783 0 0 1-.26.611.953.953 0 0 1-.663.234zm-.754 1.118h1.495V19h-1.495v-6.383zm3.39 3.198c0-.529.087-1.001.26-1.417.173-.416.407-.767.702-1.053a3.056 3.056 0 0 1 1.02-.657c.386-.151.791-.227 1.216-.227.416 0 .778.071 1.085.214.308.144.57.319.787.527l-.715.949a2.4 2.4 0 0 0-.52-.345 1.286 1.286 0 0 0-.559-.123c-.52 0-.94.193-1.261.579-.32.385-.481.903-.481 1.553 0 .641.158 1.155.475 1.54.316.386.725.579 1.228.579.26 0 .5-.054.722-.163.22-.108.418-.236.591-.383l.624.949a3.242 3.242 0 0 1-1.001.611 3.049 3.049 0 0 1-1.092.208 3.31 3.31 0 0 1-1.216-.221 2.739 2.739 0 0 1-.981-.65 3.006 3.006 0 0 1-.65-1.053 4.015 4.015 0 0 1-.234-1.417z" fill="#FFF"/>
    </g>
</svg>
